<?xml version="1.0" encoding="UTF-8"?>
<svg id="Layer_2" data-name="Layer 2" xmlns="http://www.w3.org/2000/svg" viewBox="0 0 1177.1 152.32">
  <defs>
    <style>
      .cls-1 {
        fill: #f0593c;
      }

      .cls-2 {
        fill: #1d2943;
      }
    </style>
  </defs>
  <g id="Layer_1-2" data-name="Layer 1">
    <g>
      <path class="cls-2" d="m77.5,152.32c-25.24,0-44.46-6.46-57.68-19.38C6.61,120.03,0,102.07,0,79.07S6.46,36.44,19.38,23.3C32.29,10.16,51.59,3.58,77.28,3.58c8.81,0,16.69.67,23.63,2.02,6.94,1.34,13.62,3.14,20.05,5.38v31.58c-12.99-5.38-26.66-8.06-40.99-8.06s-25.87,3.58-32.82,10.75c-6.94,7.17-10.42,18.45-10.42,33.82s3.66,25.39,10.98,32.26c7.31,6.87,18.22,10.3,32.7,10.3,7.02,0,13.96-.63,20.83-1.9,6.87-1.27,13.51-3.25,19.94-5.94v31.81c-6.27,2.09-12.92,3.74-19.94,4.93-7.02,1.19-14.93,1.79-23.74,1.79Z"/>
      <path class="cls-2" d="m242.97,58.94l-26.02,26.03c.82,3.37,1.23,7.38,1.23,12.02,0,9.71-1.79,16.65-5.38,20.83-3.58,4.18-9.56,6.27-17.92,6.27-5.79,0-10.43-1.04-13.92-3.13l-23.24,23.23c9.32,5.43,21.71,8.13,37.16,8.13,20.61,0,35.77-4.74,45.47-14.23,9.71-9.48,14.56-23.18,14.56-41.1,0-16.02-3.98-28.71-11.94-38.05Zm-48.09-17.28c-20.31,0-35.35,4.78-45.13,14.34-9.79,9.56-14.68,23.22-14.68,40.99,0,16.09,3.92,28.78,11.74,38.06l26.2-26.19c-.8-3.34-1.2-7.3-1.2-11.87,0-9.71,1.79-16.65,5.38-20.83,3.58-4.18,9.48-6.28,17.69-6.28,5.84,0,10.52,1.03,14.03,3.07l23.14-23.13c-9.35-5.44-21.74-8.16-37.17-8.16Z"/>
      <path class="cls-2" d="m273.28,150.08V43.9h33.6l1.12,9.18c4.33-2.99,9.78-5.63,16.35-7.95,6.57-2.31,13.59-3.47,21.06-3.47,13.74,0,23.74,3.29,30.02,9.86,6.27,6.57,9.41,16.73,9.41,30.46v68.1h-36.06v-65.18c0-5.97-1.27-10.23-3.81-12.77-2.54-2.54-7.09-3.81-13.66-3.81-3.89,0-7.84.9-11.87,2.69-4.03,1.79-7.39,4.03-10.08,6.72v72.35h-36.06Z"/>
      <path class="cls-2" d="m445.98,152.32c-8.51,0-16.58-.6-24.19-1.79s-13.66-2.69-18.14-4.48v-27.55c5.23,2.24,11.27,3.96,18.14,5.15,6.87,1.2,12.99,1.79,18.37,1.79,6.42,0,11.09-.3,14-.9,2.91-.59,4.37-2.24,4.37-4.93,0-2.99-2.39-5.23-7.17-6.72-4.78-1.49-11.35-3.66-19.71-6.5-9.71-3.43-17.06-7.43-22.06-11.98-5-4.55-7.5-11.31-7.5-20.27,0-10.45,3.92-18.48,11.76-24.08,7.84-5.6,20.35-8.4,37.52-8.4,6.72,0,13.36.53,19.94,1.57,6.57,1.05,11.95,2.24,16.13,3.58v27.1c-4.18-1.94-8.96-3.36-14.34-4.26-5.38-.9-10.23-1.34-14.56-1.34-5.53,0-10.19.34-14,1.01-3.81.67-5.71,2.28-5.71,4.82,0,2.84,2.09,4.82,6.27,5.94,4.18,1.12,10.23,2.95,18.14,5.49,8.36,2.54,14.86,5.26,19.49,8.18,4.63,2.91,7.91,6.38,9.86,10.42,1.94,4.03,2.91,9.11,2.91,15.23,0,10.61-4.18,18.74-12.54,24.42-8.36,5.68-20.68,8.51-36.96,8.51Z"/>
      <path class="cls-2" d="m566.49,152.32c-18.97,0-33.79-4.63-44.46-13.89-10.68-9.26-16.02-23.07-16.02-41.44s5.56-32.55,16.69-41.66c11.12-9.11,25.95-13.66,44.46-13.66,7.76,0,14.52.56,20.27,1.68,5.75,1.12,11.31,2.95,16.69,5.49v25.54c-8.36-4.03-18.14-6.05-29.34-6.05-10.45,0-18.41,2.09-23.86,6.27-5.45,4.18-8.18,11.65-8.18,22.4,0,10.01,2.54,17.29,7.62,21.84,5.08,4.56,13.14,6.83,24.19,6.83s20.83-2.24,29.79-6.72v26.66c-5.38,2.39-11.17,4.11-17.36,5.15-6.2,1.04-13.03,1.57-20.5,1.57Z"/>
      <path class="cls-2" d="m679.6,152.32c-18.52,0-33.38-4.59-44.58-13.78-11.2-9.18-16.8-23.03-16.8-41.55,0-16.87,4.63-30.31,13.89-40.32,9.26-10,23.15-15.01,41.66-15.01,16.87,0,29.94,4.33,39.2,12.99,9.26,8.66,13.89,20.31,13.89,34.94v19.04h-75.26c1.64,7.02,5.49,11.91,11.54,14.67,6.05,2.76,14.3,4.14,24.75,4.14,5.82,0,11.76-.52,17.81-1.57,6.05-1.04,11.09-2.39,15.12-4.03v23.52c-5.08,2.39-11.13,4.14-18.14,5.26-7.02,1.12-14.71,1.68-23.07,1.68Zm-28-64.51h43.9v-4.7c0-5.23-1.57-9.37-4.7-12.43-3.14-3.06-8.44-4.59-15.9-4.59-8.66,0-14.71,1.76-18.14,5.26-3.44,3.51-5.15,9-5.15,16.46Z"/>
      <path class="cls-2" d="m745.24,150.08V43.9h33.6l1.12,9.18c4.33-2.99,9.78-5.63,16.35-7.95,6.57-2.31,13.59-3.47,21.06-3.47,13.74,0,23.74,3.29,30.02,9.86,6.27,6.57,9.41,16.73,9.41,30.46v68.1h-36.06v-65.18c0-5.97-1.27-10.23-3.81-12.77-2.54-2.54-7.09-3.81-13.66-3.81-3.89,0-7.84.9-11.87,2.69-4.03,1.79-7.39,4.03-10.08,6.72v72.35h-36.06Z"/>
      <path class="cls-2" d="m922.19,152.32c-13.14,0-22.81-3.36-29.01-10.08-6.2-6.72-9.3-15.98-9.3-27.78v-43.23h-14.34v-27.33h14.34v-22.18l36.06-9.63v31.81h25.76l-1.57,27.33h-24.19v40.77c0,5.08,1.27,8.62,3.81,10.64,2.54,2.02,6.35,3.02,11.42,3.02,4.33,0,8.74-.75,13.22-2.24v24.42c-7.02,2.99-15.76,4.48-26.21,4.48Z"/>
      <path class="cls-2" d="m957.81,150.08v-26.43h28.9v26.43h-28.9Z"/>
      <path class="cls-2" d="m1038.22,152.32c-6.72,0-12.96-1.2-18.7-3.58-5.75-2.39-10.34-6.08-13.78-11.09-3.44-5-5.15-11.24-5.15-18.7,0-10.9,3.7-19.45,11.09-25.65,7.39-6.19,18.48-9.3,33.26-9.3h29.57v-2.46c0-5.38-1.79-9.22-5.38-11.54-3.58-2.31-10.3-3.47-20.16-3.47-12.1,0-23.97,1.87-35.62,5.6v-23.3c5.23-2.09,11.61-3.81,19.15-5.15,7.54-1.34,15.49-2.02,23.86-2.02,16.43,0,29.31,3.36,38.64,10.08,9.33,6.72,14,17.4,14,32.03v66.3h-31.58l-1.79-8.96c-3.89,3.58-8.85,6.35-14.9,8.29-6.05,1.94-13.55,2.91-22.51,2.91Zm11.42-22.18c5.67,0,10.6-.97,14.78-2.91,4.18-1.94,7.54-4.4,10.08-7.39v-15.01h-25.54c-10.61,0-15.9,4.26-15.9,12.77,0,3.89,1.34,6.94,4.03,9.18,2.69,2.24,6.87,3.36,12.54,3.36Z"/>
      <path class="cls-2" d="m1140.81,150.08v-79.52h-15.68l3.14-26.66h48.61v106.18h-36.06Zm-2.91-122.98V0h39.2v27.1h-39.2Z"/>
    </g>
    <path class="cls-1" d="m205.2,84.69c-2.08-2.43-5.54-3.64-10.4-3.64s-8.19,1.21-10.26,3.64c-2.08,2.43-3.12,6.46-3.12,12.09s1.04,9.67,3.12,12.09c2.08,2.43,5.5,3.64,10.26,3.64s8.32-1.21,10.4-3.64c2.08-2.42,3.12-6.45,3.12-12.09s-1.04-9.66-3.12-12.09Z"/>
  </g>
</svg>